<svg width="49.99999999999999" height="49.99999999999999" xmlns="http://www.w3.org/2000/svg" stroke="null">
 <g stroke="null">
  <title stroke="null">Layer 1</title>
  <path fill="#f7f7f7de" d="m24.52019,14.88486c0.03122,0 0.06057,0.00603 0.08261,0.01696c0.0221,0.01094 0.03425,0.02551 0.03425,0.04101l0.04812,0c0,-0.04504 -0.07402,-0.08168 -0.165,-0.08168l0,0.02371l0.00001,0l0.00001,0zm0.00006,-0.04204c0.11128,0 0.2018,0.04488 0.2018,0.10003l0.0481,0c0,-0.06823 -0.11211,-0.12375 -0.24991,-0.12375l0,0.02372l0.00001,0zm0.06653,0.08346c0,0.00908 -0.01492,0.01644 -0.03332,0.01644s-0.03332,-0.00736 -0.03332,-0.01644c0,-0.00907 0.01492,-0.01643 0.03332,-0.01643s0.03332,0.00736 0.03332,0.01643z" id="svg_3" stroke="null"/>
  <path fill="#f7f7f7de" d="m26.01506,50.08336c0.01539,0 0.02986,0.00603 0.04073,0.01696c0.0109,0.01094 0.01689,0.02551 0.01689,0.04101l0.02373,0c0,-0.04504 -0.0365,-0.08168 -0.08135,-0.08168l0,0.02371l0.00001,0l-0.00001,0zm0.00003,-0.04204c0.05487,0 0.09949,0.04488 0.09949,0.10003l0.02372,0c0,-0.06823 -0.05527,-0.12375 -0.12321,-0.12375l0,0.02372l0.00001,0l-0.00001,0zm0.0328,0.08346c0,0.00908 -0.00736,0.01644 -0.01643,0.01644s-0.01643,-0.00736 -0.01643,-0.01644c0,-0.00907 0.00736,-0.01643 0.01643,-0.01643s0.01643,0.00736 0.01643,0.01643z" id="svg_4" stroke="null"/>
  <path transform="rotate(90.2653 26.3127 25.5458)" stroke="#b2b2b2" id="svg_6" d="m24.87736,34.99451l5.00618,-5.83594l-9.67921,0l-9.67919,0l0,-3.61272l0,-3.61273l9.56815,0c5.26247,0 9.56814,-0.18311 9.56814,-0.40691c0,-0.2238 -2.09497,-2.84997 -4.65549,-5.83594l-4.65551,-5.42903l4.30311,0l4.3031,0l6.5718,7.64963l6.5718,7.64962l-6.58441,7.63499l-6.5844,7.63499l-4.53013,0l-4.53014,0l5.0062,-5.83594l0,0z" fill="#f7f7f7de"/>
 </g>

</svg>