<svg width="48" height="48" xmlns="http://www.w3.org/2000/svg" stroke="null">
 <g id="Layer_1">
  <title>Layer 1</title>
  <g stroke="null">
   <g stroke="null">
    <title fill="#161616">Layer 1</title>
    <path id="svg_3" d="m21.16068,8.25576c0.04725,0 0.09167,0.0087 0.12503,0.02446c0.03345,0.01578 0.05184,0.03679 0.05184,0.05914l0.07283,0c0,-0.06496 -0.11203,-0.1178 -0.24972,-0.1178l0,0.03419l0.00002,0l0.00002,0zm0.00009,-0.06063c0.16842,0 0.30542,0.06472 0.30542,0.14426l0.0728,0c0,-0.0984 -0.16967,-0.17847 -0.37823,-0.17847l0,0.03421l0.00002,0zm0.10069,0.12036c0,0.01309 -0.02258,0.02371 -0.05043,0.02371s-0.05043,-0.01061 -0.05043,-0.02371c0,-0.01308 0.02258,-0.02369 0.05043,-0.02369s0.05043,0.01061 0.05043,0.02369z" fill="#161616"/>
    <path id="svg_2" d="m23.4231,59.01822c0.02329,0 0.04519,0.0087 0.06164,0.02446c0.0165,0.01578 0.02556,0.03679 0.02556,0.05914l0.03591,0c0,-0.06496 -0.05524,-0.1178 -0.12312,-0.1178l0,0.03419l0.00002,0l-0.00002,0zm0.00005,-0.06063c0.08304,0 0.15057,0.06472 0.15057,0.14426l0.0359,0c0,-0.0984 -0.08365,-0.17847 -0.18647,-0.17847l0,0.03421l0.00002,0l-0.00002,0zm0.04964,0.12036c0,0.01309 -0.01114,0.02371 -0.02487,0.02371s-0.02487,-0.01061 -0.02487,-0.02371c0,-0.01308 0.01114,-0.02369 0.02487,-0.02369s0.02487,0.01061 0.02487,0.02369z" fill="#161616"/>
    <path fill="#161616" d="m9.58357,21.49763l8.79726,7.25869l0.06783,-13.95898l0.06783,-13.95896l5.46764,0.02412l5.46765,0.02412l-0.06705,13.79882c-0.03688,7.58933 0.21007,13.80003 0.54878,13.80152c0.33871,0.00149 4.32794,-3.00225 8.86497,-6.675l8.24914,-6.67774l-0.03016,6.20578l-0.03016,6.20577l-11.62331,9.42651l-11.6233,9.42652l-11.50896,-9.54677l-11.50896,-9.54675l0.03175,-6.53318l0.03175,-6.53319l8.79726,7.25872l0,0l0.00003,0z" id="svg_1"/>
   </g>
  </g>
 </g>

</svg>